<svg width="54" height="54" viewBox="0 0 54 54" fill="none" xmlns="http://www.w3.org/2000/svg">
<path d="M54 27C54 41.9117 41.9117 54 27 54C12.0883 54 0 41.9117 0 27C0 12.0883 12.0883 0 27 0C41.9117 0 54 12.0883 54 27Z" fill="#482424"/>
<path d="M33.6643 17.945L32.8218 17.1025C32.397 16.6777 31.7083 16.6777 31.2835 17.1025L28.3305 20.0554C27.9058 20.4802 27.9058 21.1689 28.3305 21.5937L30.3679 23.631C30.7035 23.9666 30.7867 24.4793 30.5744 24.9038C29.3475 27.3577 27.3577 29.3475 24.9038 30.5744C24.4793 30.7867 23.9666 30.7035 23.631 30.3679L21.5937 28.3305C21.1689 27.9058 20.4802 27.9058 20.0554 28.3305L17.1025 31.2835C16.6777 31.7083 16.6777 32.397 17.1025 32.8218L17.945 33.6643C20.2415 35.9608 23.8773 36.2192 26.4756 34.2705L28.0707 33.0742C29.9671 31.6518 31.6518 29.9671 33.0742 28.0707L34.2705 26.4756C36.2192 23.8773 35.9608 20.2415 33.6643 17.945Z" fill="white"/>
</svg>
