<svg width="24" height="24" viewBox="0 0 24 24" fill="none" xmlns="http://www.w3.org/2000/svg">
<path d="M17.4528 6.54533C16.754 6.03815 15.8033 6.51812 14.8168 7.16557C14.7867 6.86409 14.5412 6.74161 14.5412 6.41448C14.5412 6.41448 15.5496 6.22344 15.7951 5.89212C16.0149 5.59587 16.0494 5.12376 15.7951 4.84688C15.0058 3.98745 12.6605 4.00001 12.0339 4.00001C11.4072 4.00001 9.06189 3.98745 8.27259 4.84688C8.01828 5.12324 8.05281 5.59587 8.27259 5.89212C8.51811 6.22344 9.52655 6.41448 9.52655 6.41448C9.52655 6.65368 9.24713 6.80703 9.24838 7.19383C8.21921 6.53748 7.22584 6.03501 6.52068 6.56627C5.25855 7.51782 6.59415 9.63343 7.33824 10.8414C6.8629 11.8914 6.70341 12.9424 7.018 13.7296C7.64466 15.2972 9.52592 16.3424 9.52592 17.3872C9.52592 17.9095 8.89926 17.9095 8.89926 18.4324C8.89926 18.9553 10.1532 20 12.0339 20C13.9145 20 15.1684 18.9548 15.1684 18.4324C15.1684 17.91 14.5418 17.91 14.5418 17.3872C14.5418 16.3419 16.4224 15.2967 17.0497 13.7296C17.3649 12.9419 17.2048 11.8904 16.7295 10.8404C17.4453 9.62191 18.7401 7.47804 17.4535 6.54481L17.4528 6.54533ZM9.52592 7.98208C8.87477 8.52485 8.29896 9.19324 7.84999 9.89984C7.23086 9.0247 6.12132 7.69944 6.98786 7.03367C7.56994 6.58616 9.13033 7.56754 9.3972 7.74131C9.43299 7.81616 9.47506 7.89572 9.52718 7.98208H9.52655H9.52592ZM14.6881 7.70991C15.1019 7.43879 16.4507 6.61652 16.9963 7.02006C17.8735 7.66856 16.8092 9.00115 16.2089 9.88623C15.7612 9.18434 15.1885 8.52171 14.5412 7.98208C14.6008 7.88211 14.6492 7.79208 14.6881 7.70991Z" fill="white"/>
</svg>
