<svg width="64" height="64" viewBox="0 0 64 64" fill="none" xmlns="http://www.w3.org/2000/svg">
<g clip-path="url(#clip0_229_1078)">
<path d="M51.9094 17.333H28.9734C26.1534 17.333 23.5854 18.8823 22.2721 21.3757L18.0788 29.333H13.0214H12.6268C7.71343 29.333 3.67343 33.3303 3.62277 38.245L3.54943 45.3063C3.54277 46.0183 3.8201 46.7037 4.32143 47.2103C4.82143 47.7143 5.5041 47.9997 6.2161 47.9997H9.48543C10.5854 51.105 13.5388 53.333 17.0201 53.333C20.5014 53.333 23.4561 51.105 24.5548 47.9997H36.1521C37.2521 51.105 40.2054 53.333 43.6868 53.333C47.1681 53.333 50.1228 51.105 51.2214 47.9997H56.0001C57.4721 47.9997 58.6668 46.805 58.6668 45.333V24.0903C58.6668 20.3637 55.6361 17.333 51.9094 17.333ZM26.9908 23.861C27.3801 23.125 28.1388 22.6663 28.9734 22.6663H51.9094C52.6948 22.6663 53.3334 23.305 53.3334 24.0903V29.333H24.1081L26.9908 23.861ZM17.0214 47.9997C15.5508 47.9997 14.3548 46.8037 14.3548 45.333C14.3548 43.8623 15.5508 42.6663 17.0214 42.6663C18.4921 42.6663 19.6881 43.8623 19.6881 45.333C19.6881 46.8037 18.4921 47.9997 17.0214 47.9997ZM43.6881 47.9997C42.2174 47.9997 41.0214 46.8037 41.0214 45.333C41.0214 43.8623 42.2174 42.6663 43.6881 42.6663C45.1588 42.6663 46.3548 43.8623 46.3548 45.333C46.3548 46.8037 45.1588 47.9997 43.6881 47.9997Z" fill="#482424" fill-opacity="0.5"/>
</g>
<defs>
<clipPath id="clip0_229_1078">
<rect width="64" height="64" fill="white"/>
</clipPath>
</defs>
</svg>
