<svg width="64" height="64" viewBox="0 0 64 64" fill="none" xmlns="http://www.w3.org/2000/svg">
<path d="M34.9 3.30018L34.4375 3.72518L34.4 8.96268L34.3625 14.1877L33.6625 14.6877C32.3375 15.6377 31.425 17.0127 30.9875 18.7252C30.7625 19.6002 30.75 20.1502 30.75 26.4002V33.1377L29.6625 33.1002L28.5625 33.0627L28.5 29.0877L28.4375 25.1002L28.0875 24.8002C27.85 24.5877 27.5875 24.5002 27.2375 24.5002H26.75V20.3877V16.2752L26.4375 15.9002C26.05 15.4377 25.4875 15.3127 24.9375 15.5752C24.6125 15.7252 24.3625 16.0502 23.8 17.1002L23.0625 18.4252L22.8875 17.9377C22.45 16.7627 21.8 15.6752 21.3875 15.4002C20.6125 14.8877 19.45 15.1377 18.9375 15.9127C18.35 16.8127 17.4625 19.5627 17.0125 21.8752C16.475 24.6002 16.3375 26.1002 16.3 29.6252L16.2625 33.0627L12.3 33.1252L8.35004 33.1877L7.98754 33.6002C7.58754 34.0377 7.51254 34.6127 7.77504 35.1877C7.85004 35.3627 8.42504 35.8877 9.05004 36.3502L10.175 37.1877L7.37504 37.2502C4.80004 37.3127 4.51254 37.3377 3.95004 37.6002C2.16254 38.4127 1.26254 39.8127 1.06254 42.0877C0.987542 42.9502 1.00004 43.0127 1.30004 43.3127C1.67504 43.6877 2.11254 43.7127 2.51254 43.3877C2.73754 43.2127 2.82504 42.9377 2.95004 42.0627C3.16254 40.6252 3.56254 39.9627 4.48754 39.4752L5.16254 39.1252L32.125 39.1502L59.0875 39.1877L59.7 39.5627C60.1625 39.8502 60.3875 40.1127 60.65 40.6252C60.975 41.2877 61.0125 41.5752 61.5625 47.6877C62.1125 53.7877 62.125 54.0627 61.9125 54.2252C60.9125 54.9752 58.275 55.8877 56.4125 56.1377C55.35 56.2752 52.8875 56.2252 52.2875 56.0502L52 55.9752V52.8127C52 51.0627 51.9625 49.5502 51.925 49.4377C51.8 49.1377 51.175 48.8627 50.8125 48.9502C50.15 49.1127 50.125 49.2752 50.125 52.9002V56.2377L49.2875 56.7377C47.45 57.8252 44.975 58.6627 42.4 59.0752C41.375 59.2377 40.575 59.2627 38.875 59.2127C36.65 59.1502 35.675 59.0002 33.95 58.4502L33.0625 58.1752L33 53.5127L32.9375 48.8502L32.5875 48.5502C32.15 48.1752 31.85 48.1752 31.4125 48.5502L31.0625 48.8502L31 53.5127L30.9375 58.1752L30.05 58.4502C28.325 59.0002 27.35 59.1502 25.125 59.2127C23.425 59.2627 22.625 59.2377 21.6 59.0752C19.025 58.6627 16.6625 57.8752 14.7625 56.7627L13.875 56.2377V52.8877C13.875 49.7877 13.8625 49.5002 13.6375 49.2377C13.475 49.0252 13.275 48.9502 12.9375 48.9502C12.6 48.9502 12.4 49.0252 12.2375 49.2377C12.025 49.5002 12 49.7877 12 52.7502V55.9752L11.725 56.0502C11.5625 56.1002 10.825 56.1627 10.0625 56.2127C7.72504 56.3377 5.36254 55.8627 3.31254 54.8752C1.67504 54.0877 1.81254 54.6127 2.18754 50.4627C2.50004 47.1377 2.51254 46.8377 2.32504 46.5627C1.96254 46.0127 1.16254 46.0002 0.812542 46.5377C0.700042 46.7252 0.525042 48.0127 0.312542 50.4252C-0.0499577 54.3627 -0.0374577 54.6377 0.562542 55.3627C0.925042 55.7752 2.90004 56.8252 4.12504 57.2502C6.40004 58.0252 9.31254 58.3002 11.55 57.9627C12.7875 57.7752 12.7875 57.7752 13.25 58.0627C14.8 59.0377 17.0125 59.9627 19.0625 60.4752C21.2875 61.0377 22.6625 61.1627 25.2875 61.0877C27.7 61.0127 29.075 60.7752 31.1125 60.0752L32.0375 59.7502L32.925 60.0752C34.8 60.7627 36.275 61.0127 38.7125 61.0877C41.3375 61.1627 42.7125 61.0377 44.9375 60.4752C46.9875 59.9627 49.2 59.0377 50.75 58.0627C51.2125 57.7752 51.2125 57.7752 52.45 57.9627C54.1125 58.2127 56.475 58.1127 58.2625 57.7002C60.3125 57.2252 62.675 56.1627 63.4 55.3752C64.075 54.6377 64.075 54.6252 63.4375 47.6752C63.125 44.1752 62.8 41.0627 62.7375 40.7752C62.4625 39.5002 61.4125 38.2377 60.15 37.6502C59.5375 37.3752 59.225 37.3127 57.9 37.2752C56.6125 37.2252 56.35 37.1877 56.2875 37.0127C55.675 35.1877 54.575 34.0877 52.725 33.4627C52.525 33.3877 52.5 33.2002 52.5 31.8252V30.2752L52.9125 30.1877C54.4 29.8627 55.625 28.3377 55.625 26.8127C55.625 25.9377 54.7625 20.6252 54.55 20.2252C54.2375 19.6127 53.75 19.5002 51.5625 19.5002C48.5 19.5002 48.625 19.3627 47.9875 23.5752C47.55 26.3627 47.5125 26.8752 47.625 27.4377C47.8875 28.7127 48.8625 29.7877 50.0625 30.1252L50.625 30.2877V31.8877C50.625 33.3377 50.6 33.5002 50.4125 33.5002C50.05 33.5127 49.1125 33.9752 48.5375 34.4502C47.8625 35.0002 47.35 35.7502 47.05 36.5877L46.8125 37.2502H45.85H44.875V31.6252V25.9877L44.5625 25.6877C44.175 25.2877 43.6375 25.2752 43.275 25.6627C43.0375 25.9127 43 26.1127 42.975 27.3002L42.9375 28.6627L42.125 28.9377C41.675 29.1002 40.525 29.5002 39.5625 29.8377L37.8 30.4627L35.25 29.5627L32.6875 28.6502L32.65 24.3877L32.625 20.1252L37.775 20.1502L42.9375 20.1877L43 21.2877C43.05 22.2627 43.1 22.4252 43.3625 22.6377C43.7 22.9127 43.875 22.9252 44.2875 22.7377C44.7375 22.5252 44.875 22.1127 44.875 20.9002C44.8625 18.2252 43.925 16.2002 42.0625 14.7877L41.2625 14.1877L41.25 9.15018C41.25 3.68768 41.25 3.68768 40.55 3.13768C40.2375 2.88768 40.0625 2.87518 37.8 2.87518H35.375L34.9 3.30018ZM39.375 6.62518V8.50018H37.8125H36.25V6.62518V4.75018H37.8125H39.375V6.62518ZM39.375 12.4002C39.375 14.8252 39.5 15.2002 40.45 15.9002C41.35 16.5752 42.5 17.8252 42.5 18.1502C42.5 18.2127 40.3875 18.2502 37.8125 18.2502C35.2375 18.2502 33.125 18.2127 33.125 18.1627C33.125 17.8502 34.125 16.7002 34.8875 16.1252C36.1625 15.1502 36.25 14.9377 36.25 12.4002V10.3752H37.8125H39.375V12.4002ZM21.2375 19.0502C21.525 19.9002 21.75 20.7127 21.75 20.8502C21.75 20.9877 21.5 21.6252 21.2 22.2877C20.4 24.0002 19.55 26.1627 18.8 28.3752L18.1375 30.3127L18.125 29.1252C18.1125 25.3127 18.975 20.4502 20.1625 17.7002C20.4875 16.9252 20.5625 17.0127 21.2375 19.0502ZM24.8625 22.4627V25.8127L23.725 26.6252C23.1125 27.0752 22.175 27.7877 21.6375 28.2002C21.1125 28.6252 20.675 28.9377 20.65 28.8752C20.6125 28.7627 21.3 26.8627 22.05 25.0002C22.625 23.6127 24.75 19.1252 24.8375 19.1252C24.85 19.1252 24.875 20.6252 24.8625 22.4627ZM53 21.4877C53 21.5502 53.175 22.6877 53.375 24.0002C53.8125 26.7502 53.825 27.0002 53.5625 27.5127C53.225 28.1377 52.7 28.3752 51.5875 28.3752C50.35 28.3752 49.9375 28.1752 49.6125 27.4252L49.3625 26.8752L49.75 24.2752C49.975 22.8502 50.1625 21.6127 50.2 21.5252C50.25 21.3377 53 21.3002 53 21.4877ZM26.625 30.0002V33.1252H22.875C20.7875 33.1252 19.125 33.0752 19.125 33.0127C19.125 32.8752 20.3375 31.7502 21.8125 30.4877C22.825 29.6377 26.4625 26.8752 26.575 26.8752C26.6 26.8752 26.625 28.2752 26.625 30.0002ZM37.425 32.2627C37.8625 32.3752 38.175 32.3002 40.4625 31.5127L43 30.6502V33.9502V37.2502H38.225C35.6 37.2502 33.5 37.2002 33.5625 37.1502C33.6375 37.0877 34.15 36.6877 34.7125 36.2627C35.875 35.3877 36 35.2252 36 34.5002C36 34.0752 35.925 33.9002 35.575 33.5502L35.15 33.1252H33.8875H32.625V31.8752V30.6377L34.7875 31.3877C35.9625 31.8127 37.1625 32.2002 37.425 32.2627ZM31.8 36.1252L30.3125 37.2377L21.85 37.2502H13.4L11.95 36.1752C11.15 35.5877 10.5 35.0752 10.5 35.0502C10.5 35.0252 15.625 35.0002 21.9 35.0002H33.2875L31.8 36.1252ZM52.5125 35.4002C52.75 35.4752 53.1 35.6502 53.2875 35.7877C53.65 36.0377 54.375 36.9502 54.375 37.1502C54.375 37.2002 53.1375 37.2502 51.625 37.2502C48.55 37.2502 48.6125 37.2752 49.2375 36.4127C49.925 35.4627 51.375 35.0127 52.5125 35.4002Z" fill="#482424" fill-opacity="0.5"/>
</svg>
