<svg width="64" height="64" viewBox="0 0 64 64" fill="none" xmlns="http://www.w3.org/2000/svg">
<path d="M35.4617 29.7828H45.8514M35.4617 44.1994H45.8514M55.9999 55.2373C55.9999 56.3395 55.5621 57.3966 54.7827 58.1759C54.0033 58.9553 52.9463 59.3932 51.8441 59.3932H14.4415C13.3393 59.3932 12.2822 58.9553 11.5029 58.1759C10.7235 57.3966 10.2856 56.3395 10.2856 55.2373V9.52303C10.2856 8.42083 10.7235 7.36378 11.5029 6.58441C12.2822 5.80503 13.3393 5.36719 14.4415 5.36719H37.656C38.7581 5.36742 39.815 5.80542 40.5942 6.58485L54.7823 20.7729C55.5617 21.5521 55.9997 22.609 55.9999 23.7111V55.2373Z" stroke="#A39191" stroke-width="4" stroke-linecap="round" stroke-linejoin="round"/>
<path d="M19.3906 43.9648L22.8732 47.4474L28.6789 39.3227M19.3906 29.2905L22.8732 32.7731L28.6789 24.6484" stroke="#A39191" stroke-width="4" stroke-linecap="round" stroke-linejoin="round"/>
</svg>
