<svg width="64" height="64" viewBox="0 0 64 64" fill="none" xmlns="http://www.w3.org/2000/svg">
<path d="M31.0625 2.1125C28.875 2.6875 27.5375 4.95 28.175 7.0125C28.3 7.3875 28.425 7.7625 28.45 7.8375C28.5 7.9625 28.05 8 26.4125 8C23.35 8 22.0875 8.4125 20.7125 9.8625C19.475 11.1625 19 12.4875 19 14.65V16H17.8C16.2 16 15.7 16.1625 14.9375 16.9375C14.1375 17.725 14 18.1875 14 20C14 21.725 14.1375 22.225 14.8375 23L15.375 23.6L15.1125 24.275C14.1125 26.8125 13.9875 31.2 14.7625 36.5625C15.25 39.8625 16.15 44.025 17.3125 48.3125C17.8625 50.3375 19.4625 55.7125 19.5875 55.9125C19.6125 55.9625 19.5375 56.0375 19.4125 56.075C18.2625 56.4375 17.4125 57.2 17.15 58.1C17.0625 58.375 17 59.225 17 59.9875C17 61.3 17.0125 61.4 17.3125 61.6875L17.6125 62H32H46.3875L46.6875 61.6875C46.9875 61.4 47 61.3 47 59.9875C47 59.225 46.9375 58.375 46.85 58.1C46.5875 57.2 45.7375 56.4375 44.5875 56.075C44.4625 56.0375 44.3875 55.9625 44.4125 55.9125C44.6875 55.45 46.9625 47.4875 47.675 44.4875C49.1375 38.3375 49.6875 34.4625 49.6875 30.25C49.6875 27.05 49.55 25.9875 48.9125 24.4L48.6 23.6L49.0375 23.15C49.8125 22.35 50 21.775 50 20.075C50 18.275 49.8625 17.775 49.1625 17C48.45 16.2125 47.8375 16 46.225 16H45V14.7625C45 12.525 44.525 11.1625 43.3125 9.8875C41.9 8.4125 40.6625 8 37.5875 8C35.95 8 35.5 7.9625 35.55 7.8375C36.125 6.45 36.1125 5.2875 35.475 4.1C34.8125 2.85 33.7 2.1375 32.2625 2.0625C31.8125 2.0375 31.275 2.05 31.0625 2.1125ZM32.7875 4.175C34.0875 4.7125 34.3875 6.3625 33.375 7.375C32.55 8.2 31.425 8.2125 30.6125 7.3875C29.0625 5.85 30.775 3.325 32.7875 4.175ZM40.625 10.35C41.525 10.7875 42.05 11.3 42.5 12.15C42.9 12.9 42.925 13.0125 42.975 14.4625L43.025 16H32H20.975L21.025 14.4625C21.075 13.1875 21.125 12.8375 21.3875 12.3125C21.9 11.2375 22.925 10.4 24.0625 10.1125C24.275 10.0625 27.95 10.025 32.25 10.0375L40.0625 10.0625L40.625 10.35ZM47.6875 18.3125C47.9875 18.6 48 18.7 48 20C48 21.3 47.9875 21.4 47.6875 21.6875L47.3875 22H32H16.6125L16.3125 21.6875C16.0125 21.4 16 21.3 16 20C16 18.7 16.0125 18.6 16.3125 18.3125L16.6125 18H32H47.3875L47.6875 18.3125ZM46.9 24.75C47.075 25.125 47.2625 25.5625 47.3125 25.7125L47.3875 26H32H16.6125L16.7 25.7125C16.8375 25.2375 17.125 24.575 17.325 24.275L17.5125 24L32.0375 24.025L46.5625 24.0625L46.9 24.75ZM47.75 30C47.75 33.4 47.2125 37.3875 46.05 42.625C45.2125 46.3375 43.625 52.0625 42.525 55.25L42.2875 55.9375H32H21.7125L21.35 54.875C19.625 49.8 17.8 42.6375 17 37.8125C16.45 34.55 16.25 32.4625 16.25 30.0875V28H32H47.75V30ZM44.6875 58.3125C44.95 58.5625 45 58.7375 45 59.3125V60H32H19V59.3125C19 58.7375 19.05 58.5625 19.3125 58.3125L19.6125 58H32H44.3875L44.6875 58.3125Z" fill="#A39191"/>
<path d="M29 31.5V33H27.5H26V36V39H27.5H29V42V45H32H35V42V39H36.5H38V36V33H36.5H35V31.5V30H32H29V31.5ZM33 33.5V35H34.5H36V36V37H34.5H33V40V43H32H31V40V37H29.5H28V36V35H29.5H31V33.5V32H32H33V33.5Z" fill="#A39191"/>
</svg>
