<svg width="64" height="64" viewBox="0 0 64 64" fill="none" xmlns="http://www.w3.org/2000/svg">
<path d="M32.0093 17.1426C36.0973 17.1426 39.5487 17.4763 42.3647 18.1426C45.1807 18.8089 47.3213 19.7883 48.7864 21.0774C49.4329 21.6333 49.9657 22.309 50.3556 23.0671H54.4584C55.7556 23.0671 56.8584 23.3231 57.7681 23.834C58.6681 24.3353 59.3947 25.0981 59.8516 26.0214C60.3316 26.9689 60.5716 28.1026 60.5716 29.4237C60.5716 31.4294 60.1167 33.202 59.207 34.7414C58.2973 36.2809 57.0241 37.4831 55.3841 38.3494C53.863 39.1529 52.1076 39.5837 50.1179 39.6409L49.655 39.6477H49.4779L49.3681 39.7974C48.4573 40.9792 47.2161 42.0043 45.6459 42.8717C43.9453 43.8134 41.9384 44.5403 39.6264 45.05C37.3156 45.5609 34.7761 45.8157 32.0093 45.8157C29.231 45.8157 26.6847 45.5609 24.3739 45.05C22.0619 44.5391 20.0561 43.8134 18.3544 42.8729C16.7201 41.9677 15.4401 40.8934 14.5201 39.65L14.3636 39.6477C12.1704 39.6477 10.255 39.2157 8.615 38.3494C6.97728 37.4831 5.703 36.2809 4.79328 34.7414C3.88357 33.202 3.42871 31.4294 3.42871 29.4237C3.42871 28.1026 3.66871 26.9689 4.14871 26.0214C4.60555 25.0981 5.3321 24.3352 6.23214 23.834C7.05157 23.3746 8.02642 23.122 9.15785 23.0763L9.54071 23.0683H13.6447C14.0346 22.3098 14.5675 21.6338 15.2139 21.0774C16.679 19.7872 18.8219 18.8089 21.6447 18.1426C24.4676 17.4763 27.9224 17.1426 32.0104 17.1426M32.0104 20.1517C28.5704 20.1517 25.6641 20.37 23.2904 20.8066C20.9167 21.242 19.1156 21.8809 17.8881 22.722C16.7373 23.5106 16.1259 24.466 16.055 25.5894L16.047 25.8157V35.162C16.047 36.2466 16.4401 37.2557 17.2241 38.1906C18.0104 39.1254 19.119 39.938 20.5521 40.6294C21.9853 41.3209 23.6733 41.8569 25.6173 42.2374C27.5613 42.6169 29.6927 42.8077 32.0104 42.8077C34.3156 42.8077 36.4413 42.6169 38.3853 42.2363C40.3281 41.8569 42.0173 41.322 43.4504 40.6294C44.8836 39.938 45.9956 39.1254 46.7876 38.1906C47.5121 37.3334 47.9053 36.4134 47.9659 35.4317L47.9739 35.162V25.8169C47.9739 24.5963 47.3567 23.5654 46.1224 22.7231C44.8893 21.882 43.0859 21.2432 40.7121 20.8077C38.3384 20.3712 35.4379 20.1529 32.0104 20.1529M50.983 35.162C50.983 35.6534 50.9384 36.1334 50.8493 36.5974C51.9956 36.4991 53.0207 36.2031 53.927 35.714C55.0388 35.1249 55.9647 34.2382 56.6013 33.1529C57.2413 32.0626 57.5624 30.8191 57.5624 29.4237C57.5624 28.3894 57.295 27.5723 56.759 26.9746C56.2676 26.426 55.583 26.1289 54.7041 26.0831L54.4607 26.0774H50.983V35.162ZM13.0173 26.0774H9.54071C8.54414 26.0774 7.77728 26.3769 7.24243 26.9746C6.70528 27.5734 6.43785 28.3894 6.43785 29.4237C6.43785 30.8191 6.759 32.0626 7.40128 33.1529C8.03945 34.2394 8.96845 35.1261 10.0836 35.7129C10.9921 36.2031 12.015 36.498 13.1521 36.5986C13.0848 36.2439 13.0428 35.8849 13.0264 35.5243L13.0184 35.162L13.0173 26.0774ZM40.3464 33.0489C40.7579 33.0489 41.1099 33.1997 41.4024 33.498C41.695 33.7974 41.8413 34.1529 41.8413 34.5643C41.8413 34.9757 41.695 35.3277 41.4024 35.6203C41.168 35.8635 40.855 36.0157 40.519 36.05L40.3464 36.0591H23.6916C23.4949 36.062 23.2998 36.0245 23.1181 35.949C22.9365 35.8736 22.7723 35.7617 22.6356 35.6203C22.494 35.4837 22.3819 35.3195 22.3062 35.1379C22.2305 34.9562 22.1929 34.761 22.1956 34.5643C22.1956 34.1529 22.3419 33.7986 22.6356 33.498C22.887 33.242 23.1807 33.0957 23.519 33.0591L23.6904 33.05L40.3464 33.0489ZM40.3464 26.0774C40.7579 26.0774 41.1099 26.226 41.4024 26.5266C41.695 26.8249 41.8413 27.1746 41.8413 27.5734C41.8413 27.9849 41.695 28.3391 41.4024 28.6386C41.151 28.8946 40.8573 29.0409 40.519 29.0774L40.3464 29.0866H23.6916C23.2801 29.0866 22.9281 28.938 22.6356 28.6386C22.4943 28.4998 22.3825 28.3339 22.3069 28.1509C22.2313 27.9679 22.1934 27.7715 22.1956 27.5734C22.1956 27.1734 22.3419 26.8249 22.6356 26.5266C22.887 26.2694 23.1807 26.1231 23.519 26.0866L23.6904 26.0774H40.3464Z" fill="#482424" fill-opacity="0.5"/>
</svg>
