<svg width="64" height="64" viewBox="0 0 64 64" fill="none" xmlns="http://www.w3.org/2000/svg">
<path d="M8 40C8 39.6464 8.14048 39.3072 8.39052 39.0572C8.64057 38.8071 8.97971 38.6667 9.33333 38.6667H13.3333C13.687 38.6667 14.0261 38.8071 14.2761 39.0572C14.5262 39.3072 14.6667 39.6464 14.6667 40V54.6613C14.6667 55.015 14.5262 55.3541 14.2761 55.6041C14.0261 55.8542 13.687 55.9947 13.3333 55.9947H9.33333C8.97971 55.9947 8.64057 55.8542 8.39052 55.6041C8.14048 55.3541 8 55.015 8 54.6613V40ZM27.8867 38.9187C27.8867 38.9187 24.8493 38.352 23.6067 38.9187C22.6813 39.34 19.1 40.6253 17.3333 41.2547V53.068C18.356 53.0093 20.3907 52.9013 21.26 52.936C26.268 53.1373 28.824 55.248 33.8227 55.6267C36.6187 55.8387 39.068 56.3333 41.0013 55.6267C42.9347 54.9187 53.9773 49.5387 55.3573 48.1227C56.7387 46.7067 56.048 42.8827 51.768 43.5907C47.488 44.2987 41.8293 47.6973 39.4827 47.556C37.136 47.4147 30.9227 46.2813 30.9227 46.2813L38.056 46.368C38.056 46.368 39.064 46.4213 40.448 45.432C41.8347 44.4427 43.072 41.6093 41.0013 41.6093C38.9307 41.6093 36.7213 40.9 36.7213 40.9L27.8867 38.9187ZM34.6667 27.2387C34.6667 29.9053 32.6133 32 30 32C27.3867 32 25.3333 29.9053 25.3333 27.2387C25.3333 24.572 30 18.6667 30 18.6667C30 18.6667 34.6667 24.7613 34.6667 27.2387ZM54.6667 21.5093C54.6667 25.1147 51.704 28 48 28C44.296 28 41.3333 25.116 41.3333 21.5093C41.3333 17.904 48 8 48 8C48 8 54.6667 17.904 54.6667 21.5093Z" fill="#482424" fill-opacity="0.5"/>
</svg>
