<svg width="64" height="64" viewBox="0 0 64 64" fill="none" xmlns="http://www.w3.org/2000/svg">
<path d="M31.7581 17.375C28.915 17.375 26.5688 17.7591 24.9732 18.486C24.8451 18.5445 24.726 18.6034 24.6143 18.6626C26.774 19.9802 28.7702 21.5543 30.5796 23.3702C30.7836 23.5749 30.9837 23.7826 31.1815 23.9919C33.3777 21.8153 35.824 19.9646 38.4863 18.4616C36.892 17.751 34.5684 17.375 31.7581 17.375Z" fill="#482424" fill-opacity="0.5"/>
<path d="M46.3349 10.9007C42.4915 9.03012 37.3146 8 31.758 8C26.2014 8 21.0247 9.03012 17.1812 10.9007C15.1653 11.8818 13.5919 13.0579 12.5361 14.3369C15.2624 14.7187 17.92 15.4529 20.4755 16.5373C20.5478 16.5679 20.6189 16.6007 20.691 16.6319C21.3691 15.9217 22.246 15.3134 23.3076 14.8299C25.4224 13.8666 28.3445 13.3575 31.758 13.3575C35.1715 13.3575 38.0937 13.8667 40.2085 14.83C41.1849 15.2747 42.005 15.8252 42.6582 16.4631C45.3358 15.3942 48.1123 14.6738 50.9569 14.3089C49.9014 13.0405 48.3361 11.8744 46.3349 10.9007Z" fill="#482424" fill-opacity="0.5"/>
<path d="M55.3724 18.0449C46.9277 18.0449 39.2681 21.5116 33.7607 27.0957C35.1909 29.0573 36.3894 31.174 37.3387 33.4283C38.6938 36.6462 39.4917 40.0245 39.7224 43.4986C42.2905 41.7267 45.3303 40.7553 48.5307 40.7188C48.5929 40.7181 48.6556 40.7177 48.7178 40.7177C49.676 40.7177 50.6212 40.8027 51.5454 40.967C53.9786 37.6099 55.3726 33.3485 55.3726 28.0593L55.3724 18.0449Z" fill="#482424" fill-opacity="0.5"/>
<path d="M8.09863 18.0449V28.0593C8.09863 32.9719 9.39978 37.36 11.6753 41.0217C12.6929 40.8208 13.7374 40.7176 14.7977 40.7176C14.8602 40.7176 14.9224 40.7179 14.9848 40.7187C19.2351 40.767 23.203 42.464 26.1577 45.4969L31.7575 51.205L35.7754 47.1094V45.7215C35.8305 30.4524 23.3679 18.0449 8.09863 18.0449Z" fill="#482424" fill-opacity="0.5"/>
<path d="M48.5759 44.738C45.4008 44.7741 42.4384 46.0403 40.2342 48.3033L40.2292 48.3086L34.7275 53.9168C36.7356 55.2908 39.1218 56.0206 41.6287 56.0004C44.8267 55.9746 47.8002 54.7246 50.0016 52.4806L55.5153 46.8602C53.4954 45.4529 51.0965 44.7122 48.5759 44.738Z" fill="#482424" fill-opacity="0.5"/>
<path d="M23.2811 48.3036C21.077 46.0406 18.1145 44.7742 14.9394 44.7382C12.4189 44.7072 10.0201 45.4532 8 46.8603L13.5138 52.4807C15.7152 54.7248 18.6886 55.9748 21.8866 56.0007C24.3916 56.0222 26.7796 55.2912 28.788 53.9172L23.2811 48.3036Z" fill="#482424" fill-opacity="0.5"/>
</svg>
