<svg width="64" height="64" viewBox="0 0 64 64" fill="none" xmlns="http://www.w3.org/2000/svg">
<path d="M32.0002 45.6124V35.822M32.0002 35.822V26.0316M32.0002 35.822H22.0002M32.0002 35.822H42.0002M5.3335 48.2232V30.7702C5.3335 29.0275 5.3335 28.1561 5.55016 27.3435C5.7435 26.6256 6.05683 25.9435 6.4835 25.3299C6.96683 24.6348 7.63683 24.0572 8.97683 22.9117L24.9802 9.19859C27.4668 7.07081 28.7102 6.00692 30.1068 5.60224C31.3402 5.24326 32.6568 5.24326 33.8902 5.60224C35.2902 6.00692 36.5368 7.07081 39.0235 9.20512L55.0235 22.9117C56.3668 24.0605 57.0335 24.6348 57.5168 25.3267C57.943 25.942 58.2586 26.6241 58.4502 27.3435C58.6668 28.1529 58.6668 29.0275 58.6668 30.7702V48.2363C58.6668 51.8848 58.6668 53.7091 57.9402 55.1059C57.3005 56.3327 56.2807 57.33 55.0268 57.9549C53.6002 58.6663 51.7402 58.6663 48.0135 58.6663H15.9902C12.2635 58.6663 10.3968 58.6663 8.9735 57.9549C7.71951 57.3302 6.69969 56.3329 6.06016 55.1059C5.3335 53.7059 5.3335 51.8783 5.3335 48.2232Z" stroke="#A39191" stroke-width="4" stroke-linecap="round" stroke-linejoin="round"/>
</svg>
