<svg width="64" height="64" viewBox="0 0 64 64" fill="none" xmlns="http://www.w3.org/2000/svg">
<path d="M18.667 43.1203V18.667C18.667 16.5453 19.5098 14.5104 21.0101 13.0101C22.5104 11.5098 24.5453 10.667 26.667 10.667H37.3337C39.4554 10.667 41.4902 11.5098 42.9905 13.0101C44.4908 14.5104 45.3337 16.5453 45.3337 18.667V43.123M32.0003 18.667V32.0003M26.667 24.0003H37.3337" stroke="#A39191" stroke-width="3" stroke-linecap="round" stroke-linejoin="round"/>
<path d="M13.3335 56.0003V50.667C13.3335 48.5453 14.1764 46.5104 15.6766 45.0101C17.1769 43.5098 19.2118 42.667 21.3335 42.667H42.6668C44.7886 42.667 46.8234 43.5098 48.3237 45.0101C49.824 46.5104 50.6668 48.5453 50.6668 50.667V56.0003H13.3335Z" stroke="#A39191" stroke-width="3" stroke-linecap="round" stroke-linejoin="round"/>
</svg>
