<svg width="64" height="64" viewBox="0 0 64 64" fill="none" xmlns="http://www.w3.org/2000/svg">
<path d="M7.4354 5.48597C6.42372 5.83015 5.74579 6.53937 5.45376 7.51976C5.22431 8.29156 5.21388 25.2815 5.44333 25.73C5.80837 26.4184 6.8722 26.4184 7.23724 25.73C7.36239 25.4797 7.38325 24.0717 7.38325 16.8231C7.38325 7.46761 7.36239 7.7805 7.95689 7.50933C8.16548 7.41547 11.211 7.38418 20.5247 7.38418H32.8213L32.8526 10.899C32.8839 14.2991 32.8943 14.4347 33.1133 14.8518C33.4679 15.5089 33.8017 15.8635 34.417 16.1973L34.9698 16.5102L38.495 16.5414L42.0098 16.5727V23.425V30.2774L38.3282 31.4142C33.6244 32.8744 33.5931 32.8848 33.4053 33.2498C33.3219 33.4167 33.2489 33.6253 33.2489 33.7192C33.2489 33.8547 32.1746 33.8756 22.8714 33.8756C15.0595 33.8756 12.4312 33.9069 12.2331 34.0008C11.9306 34.1363 11.6594 34.5744 11.6594 34.9186C11.6594 35.2628 11.9306 35.7008 12.2331 35.8364C12.4312 35.9303 15.0595 35.9615 22.8714 35.9615H33.2489V37.8389V39.7162H22.8714C15.0595 39.7162 12.4312 39.7475 12.2331 39.8414C11.9306 39.977 11.6594 40.415 11.6594 40.7592C11.6594 41.1034 11.9306 41.5414 12.2331 41.677C12.4312 41.7709 15.0491 41.8022 22.8609 41.8022H33.2176L33.2802 43.6482C33.3428 45.6925 33.5409 46.8814 34.0728 48.4563C34.4066 49.468 35.2201 51.1472 35.7416 51.919L36.0649 52.3883L22.1621 52.4196C11.868 52.4405 8.19677 52.4092 7.97775 52.3257C7.36239 52.065 7.38325 52.4092 7.38325 43.0016C7.38325 33.6462 7.40411 33.959 6.80962 33.6879C6.25685 33.4376 5.62064 33.6462 5.41204 34.1572C5.3286 34.3762 5.29732 36.7542 5.31817 43.3145C5.34946 52.0754 5.34946 52.1902 5.56849 52.6595C5.89181 53.3478 6.382 53.8485 7.0495 54.1822L7.644 54.4743L22.7462 54.5055L37.8484 54.5264L38.5993 55.1835C40.4454 56.8001 42.8859 58.0412 45.1596 58.5418C45.921 58.7087 46.0253 58.7087 46.7762 58.5418C48.4971 58.1664 50.4892 57.2798 52.1266 56.1534C53.2739 55.3712 55.193 53.4209 55.9752 52.2319C57.2059 50.3858 57.9568 48.6232 58.4053 46.506C58.6139 45.5777 58.6243 45.0875 58.6661 39.5702C58.7182 33.1977 58.7078 33.1664 58.1863 32.8952C57.8317 32.7075 46.213 29.0779 45.9836 29.0779C45.8897 29.0779 45.4412 29.1927 44.9823 29.3387C44.5234 29.4847 44.1375 29.5994 44.1271 29.5994C44.1062 29.5994 44.0958 26.3662 44.0958 22.4238V15.2377L43.7933 14.831C43.4387 14.3512 34.7716 5.71542 34.3962 5.46511C34.1667 5.30867 32.9986 5.29824 21.0462 5.29824C8.89556 5.30867 7.91517 5.3191 7.4354 5.48597ZM37.7337 11.7125L40.4975 14.4764H38.0153H35.5226L35.2201 14.1739L34.9176 13.8714V11.41C34.9176 10.0542 34.9281 8.94863 34.9489 8.94863C34.9594 8.94863 36.2109 10.1898 37.7337 11.7125ZM51.3757 32.9056L56.6218 34.5431L56.5801 39.9665C56.5384 45.8593 56.528 45.9219 55.8813 47.841C54.8071 51.0533 52.2622 53.9423 49.1542 55.4964C48.1216 56.0074 46.5259 56.5289 45.9731 56.5289C44.951 56.5185 42.2184 55.3503 40.8104 54.2969C38.6515 52.6908 36.8576 50.2398 36.0232 47.7262C35.4183 45.901 35.4078 45.828 35.3661 39.9665L35.3244 34.5431L40.5184 32.9161C43.3761 32.0191 45.8062 31.2786 45.921 31.2682C46.0357 31.2682 48.4867 31.9983 51.3757 32.9056Z" fill="#A39191"/>
<path d="M41.812 34.69C38.4328 35.7539 37.8904 35.952 37.661 36.2128L37.4106 36.5152L37.4524 40.854C37.4941 45.5786 37.5045 45.6829 38.1512 47.4664C39.2671 50.5223 41.958 53.1297 45.0765 54.1727C45.8483 54.4334 45.9526 54.4439 46.4323 54.3187C47.1624 54.1414 48.7582 53.38 49.6238 52.8064C51.4907 51.5653 53.1073 49.448 53.8791 47.2265C54.4528 45.5891 54.5258 44.7964 54.5258 40.4264V36.4839L54.2442 36.1815C53.9939 35.9207 53.4202 35.7121 50.0619 34.6692C47.9238 34.0017 46.0777 33.4593 45.9421 33.4698C45.817 33.4698 43.9605 34.0225 41.812 34.69ZM49.3109 36.6195L52.3877 37.5895L52.419 40.8644C52.4503 44.5148 52.3564 45.3909 51.8245 46.7676C51.1361 48.5407 49.8846 50.1051 48.3305 51.1377C47.444 51.7113 46.3385 52.2328 45.9734 52.2328C45.6084 52.2328 44.5028 51.7113 43.6163 51.1272C42.0519 50.0947 40.696 48.3842 40.0598 46.6425C39.58 45.3179 39.4966 44.4209 39.5279 40.8644L39.5592 37.5895L42.6359 36.6299C44.3255 36.098 45.8274 35.66 45.9734 35.66C46.1194 35.66 47.6213 36.0876 49.3109 36.6195Z" fill="#A39191"/>
<path d="M46.9425 42.4475L45.0339 44.3457L44.1161 43.4487C43.0418 42.3744 42.7706 42.2389 42.2283 42.4996C41.7485 42.7395 41.5399 43.115 41.6338 43.5843C41.6859 43.8763 41.9884 44.2414 43.1357 45.3782C45.1903 47.4016 44.8148 47.485 47.902 44.4082L50.3009 42.0094V41.5296C50.3009 40.9039 49.9358 40.5493 49.2892 40.5493C48.8616 40.5493 48.799 40.6014 46.9425 42.4475Z" fill="#A39191"/>
<path d="M22.2038 15.6654C21.7345 15.9262 21.6823 16.1869 21.6719 17.9913V19.6913H20.0031C18.1675 19.6913 17.8546 19.7643 17.6252 20.2649C17.4479 20.6404 17.4479 25.8344 17.6252 26.2099C17.8546 26.7105 18.1675 26.7835 20.0031 26.7835H21.6719V28.4523C21.6719 30.267 21.7449 30.5695 22.2038 30.8094C22.6314 31.0284 27.8045 31.0284 28.2322 30.8094C28.6911 30.5695 28.7641 30.267 28.7641 28.4523V26.7835H30.4328C32.2685 26.7835 32.5813 26.7105 32.8108 26.2099C33.009 25.7927 32.9881 20.6091 32.7899 20.2232C32.5501 19.7643 32.2476 19.6913 30.4328 19.6913H28.7641V18.0226C28.7641 16.2078 28.6911 15.9053 28.2322 15.6654C27.8254 15.4569 22.5793 15.4569 22.2038 15.6654ZM26.6781 19.2741C26.6781 21.7772 26.6781 21.7772 29.1813 21.7772H30.85V23.2374V24.6976H29.1813C26.6781 24.6976 26.6781 24.6976 26.6781 27.2007V28.8694H25.218H23.7578V27.2007C23.7578 24.6976 23.7578 24.6976 21.2547 24.6976H19.5859V23.2374V21.7772H21.2547C23.7578 21.7772 23.7578 21.7772 23.7578 19.2741V17.6054H25.218H26.6781V19.2741Z" fill="#A39191"/>
<path d="M5.8297 29.0132C4.92232 29.5138 5.30822 30.9531 6.34076 30.9531C6.87267 30.9531 7.38373 30.4421 7.38373 29.9206C7.38373 29.1384 6.51806 28.6273 5.8297 29.0132Z" fill="#A39191"/>
<path d="M12.191 45.7036C11.4922 46.0895 11.5131 47.1951 12.2327 47.5184C12.6186 47.6957 25.3011 47.6957 25.687 47.5184C25.9895 47.3828 26.2607 46.9448 26.2607 46.6006C26.2607 46.2564 25.9895 45.8183 25.687 45.6828C25.2698 45.495 12.5352 45.5159 12.191 45.7036Z" fill="#A39191"/>
</svg>
