<svg width="64" height="64" viewBox="0 0 64 64" fill="none" xmlns="http://www.w3.org/2000/svg">
<path d="M58.8302 44.9998L49.7702 35.9373L40.6552 5.86482C40.3961 5.00851 39.9299 4.22931 39.2978 3.59624C38.6656 2.96316 37.8871 2.49576 37.0312 2.23542C36.1753 1.97509 35.2684 1.92986 34.3908 2.10375C33.5133 2.27764 32.6921 2.66527 32.0002 3.23232C31.3082 2.66527 30.487 2.27764 29.6095 2.10375C28.7319 1.92986 27.825 1.97509 26.9691 2.23542C26.1132 2.49576 25.3347 2.96316 24.7026 3.59624C24.0704 4.22931 23.6042 5.00851 23.3452 5.86482L14.2302 35.9398L5.17016 44.9998C4.42058 45.7499 3.99951 46.7669 3.99951 47.8273C3.99951 48.8877 4.42058 49.9047 5.17016 50.6548L13.3427 58.8273C13.7141 59.1988 14.1551 59.4936 14.6405 59.6946C15.1258 59.8957 15.646 59.9992 16.1714 59.9992C16.6968 59.9992 17.217 59.8957 17.7024 59.6946C18.1877 59.4936 18.6287 59.1988 19.0002 58.8273L31.0702 46.7498C31.4048 46.4144 31.7155 46.056 32.0002 45.6773C32.2848 46.056 32.5956 46.4144 32.9302 46.7498L45.0002 58.8298C45.3716 59.2013 45.8126 59.4961 46.298 59.6971C46.7833 59.8982 47.3035 60.0017 47.8289 60.0017C48.3543 60.0017 48.8745 59.8982 49.3598 59.6971C49.8452 59.4961 50.2862 59.2013 50.6577 58.8298L58.8302 50.6573C59.2017 50.2859 59.4964 49.8449 59.6975 49.3595C59.8986 48.8742 60.002 48.3539 60.002 47.8286C60.002 47.3032 59.8986 46.783 59.6975 46.2976C59.4964 45.8123 59.2017 45.3713 58.8302 44.9998ZM30.0002 39.6873C30.0042 40.4763 29.8515 41.2582 29.5511 41.9877C29.2507 42.7173 28.8085 43.3799 28.2502 43.9373L22.1702 49.9998L14.0002 41.8298L17.4127 38.4148C17.6455 38.1819 17.8173 37.8951 17.9127 37.5798L27.1627 7.02482C27.2565 6.68481 27.4714 6.39087 27.767 6.19837C28.0625 6.00588 28.4183 5.92812 28.7672 5.97977C29.1161 6.03141 29.4341 6.20889 29.6612 6.47875C29.8883 6.74861 30.0089 7.09221 30.0002 7.44482V39.6873ZM41.8602 50.0323L35.7502 43.9298C35.1918 43.3724 34.7496 42.7098 34.4492 41.9802C34.1488 41.2507 33.9962 40.4688 34.0002 39.6798V7.42982C34.0002 7.08343 34.1248 6.74861 34.351 6.48633C34.5773 6.22405 34.8902 6.05177 35.2328 6.00088C35.5755 5.94998 35.925 6.02386 36.2177 6.20905C36.5104 6.39424 36.7269 6.67842 36.8277 7.00982L46.0777 37.5648C46.173 37.8801 46.3448 38.1669 46.5777 38.3998L50.2002 42.0223L41.8602 50.0323Z" fill="#482424" fill-opacity="0.5"/>
</svg>
