<svg width="64" height="64" viewBox="0 0 64 64" fill="none" xmlns="http://www.w3.org/2000/svg">
<path d="M18.9379 16.3116C20.4744 15.2512 21.7463 15.1456 23.1284 15.9432C24.9783 17.0108 25.6574 19.4581 24.6453 21.4094C23.6331 23.3607 21.3653 23.9697 19.4633 23.0094C17.0265 21.7791 15.8234 19.1402 15.7512 17.1866V17.1862C16.8861 17.4785 17.9674 16.9815 18.9379 16.3116ZM34.2499 26.6968V29.0703H35.2984C35.1221 31.5542 33.2654 33.5435 30.9227 33.7737C31.0704 33.4815 31.1556 33.1488 31.1571 32.7947C31.1625 31.6322 30.2729 30.6854 29.1708 30.68L21.6689 30.6418C21.6689 30.6418 19.9097 26.6494 19.3598 25.2552C19.3523 25.2365 19.3436 25.2194 19.3357 25.2011C19.3331 25.1941 19.3314 25.1863 19.3283 25.1794C18.6728 23.6928 17.874 22.7846 16.3379 22.7846C14.4945 22.7846 13.4025 24.5256 12.6809 26.3146C11.2142 29.9506 10.5038 35.009 10.8717 38.9857C11.0259 40.4237 11.3444 41.6608 12.0327 42.462H8L8.00019 55.9687H10.5332V45.1339H22.6702L21.0889 52.9949C20.8187 54.3389 21.6324 55.6597 22.9066 55.9448C23.0718 55.9818 23.2359 55.9997 23.3983 55.9997C24.4884 55.9997 25.4677 55.1977 25.7031 54.0275L26.7635 48.7559L29.3174 54.5587C29.7165 55.4659 30.5684 55.9997 31.4581 55.9995C31.7903 55.9995 32.1283 55.9249 32.4494 55.7679C33.631 55.1894 34.1441 53.71 33.5956 52.4639L28.0638 39.8937C27.6774 39.0153 26.8426 38.4535 25.9246 38.4535H19.1888L19.1815 34.8397L28.9999 34.8892V38.5637H35.4601V55.946H37.9999V38.5639H56V26.6968H34.2499ZM45.6836 8.24127C42.3026 5.11582 37.9999 5.33638 37.9999 5.33638V25.1121H42.4959L42.8236 11.7877H43.6764L44 25.1121H56C56 25.1121 56 18.8509 56 14.5412C50.8001 13.7575 48.5753 10.9145 45.6836 8.24127Z" fill="#482424" fill-opacity="0.5"/>
</svg>
