<svg width="64" height="64" viewBox="0 0 64 64" fill="none" xmlns="http://www.w3.org/2000/svg">
<path fill-rule="evenodd" clip-rule="evenodd" d="M14.4953 49.3093C14.4992 47.7351 15.3938 46.196 16.8509 44.4733L8.4249 39.1451C7.89364 38.9146 7.90536 38.5904 8.21396 38.2075L9.99915 36.6841C10.3234 36.4848 10.6671 36.3989 11.0382 36.5005L21.4369 38.2583L30.1011 28.8753L9.87415 15.1914C9.36242 14.8906 9.31945 14.5508 9.84681 14.1563L12.7648 11.8281L39.1326 19.2384L46.9218 10.9101C49.5351 8.64832 52.0743 7.63658 54.0235 8.11706C55.0978 8.38269 55.4767 8.70301 55.8087 9.71085C56.4533 11.6875 55.4532 14.3438 53.0899 17.0782L44.7616 24.8674L52.1719 51.2352L49.8437 54.1532C49.4492 54.6766 49.1094 54.6337 48.8086 54.1258L35.1208 33.9028L25.7378 42.5631L27.4956 52.9618C27.5972 53.329 27.5151 53.6727 27.312 54.0008L25.7886 55.786C25.4096 56.0946 25.0815 56.1064 24.851 55.5751L19.5228 47.1491C17.7923 48.6101 16.2532 49.5047 14.6711 49.5047C14.5266 49.5007 14.4953 49.45 14.4953 49.3093Z" fill="#482424" fill-opacity="0.5"/>
</svg>
