<svg width="64" height="64" viewBox="0 0 64 64" fill="none" xmlns="http://www.w3.org/2000/svg">
<path d="M55.9999 56.0081L39.9999 40.0081M8.77588 21.3414C9.71138 18.206 11.4546 15.3716 13.8308 13.1223C16.2069 10.873 19.1326 9.2877 22.3145 8.52543C26.7805 7.44454 31.488 8.04366 35.5408 10.2087C39.5937 12.3738 42.7088 15.9537 44.2932 20.2668" stroke="#A39191" stroke-width="4" stroke-linecap="round" stroke-linejoin="round"/>
<path d="M45.3339 10.6768V21.3434H34.6672M44.5472 32.0101C43.6092 35.1405 41.8658 37.9699 39.4913 40.2152C37.1168 42.4605 34.1945 44.0431 31.0165 44.8048C26.551 45.8849 21.8441 45.2854 17.7919 43.1204C13.7396 40.9554 10.6249 37.3759 9.04053 33.0634" stroke="#A39191" stroke-width="4" stroke-linecap="round" stroke-linejoin="round"/>
<path d="M8 42.6774V32.0107H18.6667" stroke="#A39191" stroke-width="4" stroke-linecap="round" stroke-linejoin="round"/>
</svg>
