<svg width="64" height="64" viewBox="0 0 64 64" fill="none" xmlns="http://www.w3.org/2000/svg">
<g clip-path="url(#clip0_229_1756)">
<path d="M32.0002 5.33301C46.7282 5.33301 58.6668 17.2717 58.6668 31.9997C58.6668 46.7277 46.7282 58.6663 32.0002 58.6663C17.2722 58.6663 5.3335 46.7277 5.3335 31.9997C5.3335 17.2717 17.2722 5.33301 32.0002 5.33301ZM32.0002 10.6663C26.3422 10.6663 20.916 12.914 16.9152 16.9147C12.9144 20.9155 10.6668 26.3417 10.6668 31.9997C10.6668 37.6576 12.9144 43.0838 16.9152 47.0846C20.916 51.0854 26.3422 53.333 32.0002 53.333C37.6581 53.333 43.0843 51.0854 47.0851 47.0846C51.0859 43.0838 53.3335 37.6576 53.3335 31.9997C53.3335 26.3417 51.0859 20.9155 47.0851 16.9147C43.0843 12.914 37.6581 10.6663 32.0002 10.6663ZM32.0002 15.9997C32.6533 15.9998 33.2837 16.2396 33.7718 16.6736C34.2599 17.1076 34.5717 17.7057 34.6482 18.3543L34.6668 18.6663V30.8957L41.8855 38.1143C42.3638 38.5942 42.6414 39.2382 42.6621 39.9154C42.6828 40.5926 42.4449 41.2522 41.9968 41.7604C41.5487 42.2686 40.924 42.5872 40.2496 42.6514C39.5751 42.7157 38.9015 42.5208 38.3655 42.1063L38.1148 41.885L30.1148 33.885C29.7004 33.4702 29.4342 32.9303 29.3575 32.349L29.3335 31.9997V18.6663C29.3335 17.9591 29.6144 17.2808 30.1145 16.7807C30.6146 16.2806 31.2929 15.9997 32.0002 15.9997Z" fill="#A39191"/>
</g>
<defs>
<clipPath id="clip0_229_1756">
<rect width="64" height="64" fill="white"/>
</clipPath>
</defs>
</svg>
