<svg width="64" height="64" viewBox="0 0 64 64" fill="none" xmlns="http://www.w3.org/2000/svg">
<path d="M31.6295 6.37297C32.9198 5.51313 34.4322 5.0468 35.9827 5.0307C37.5332 5.01461 39.0549 5.44944 40.3628 6.2823L51.4402 13.333H56.0002C56.7074 13.333 57.3857 13.6139 57.8858 14.114C58.3859 14.6141 58.6668 15.2924 58.6668 15.9996V39.9996C58.6668 40.7069 58.3859 41.3852 57.8858 41.8853C57.3857 42.3853 56.7074 42.6663 56.0002 42.6663H51.9468C52.0324 43.9648 51.7577 45.2618 51.153 46.4141C50.5484 47.5665 49.6373 48.5295 48.5202 49.197L34.9388 57.3463C34.1043 57.8466 33.1488 58.1091 32.1759 58.1053C31.2029 58.1016 30.2494 57.8317 29.4188 57.325C28.4833 58.1516 27.2874 58.6238 26.0394 58.6594C24.7915 58.695 23.5706 58.2916 22.5895 57.5196L8.88283 46.749C7.92511 45.9969 7.25346 44.9398 6.97939 43.7533C6.70532 42.5668 6.84533 41.3222 7.37616 40.2263C6.73938 39.727 6.22455 39.0894 5.87065 38.3618C5.51675 37.6341 5.33306 36.8355 5.3335 36.0263V15.9996C5.3335 15.2924 5.61445 14.6141 6.11455 14.114C6.61464 13.6139 7.29292 13.333 8.00016 13.333H21.1922L31.6295 6.37297ZM11.1282 36.389L12.9735 34.7756C14.5505 33.3962 16.6058 32.6904 18.6976 32.8101C20.7894 32.9298 22.7508 33.8653 24.1602 35.4156L31.3655 43.341C32.4954 44.5838 33.2055 46.1508 33.395 47.8198C33.5845 49.4888 33.2439 51.1751 32.4215 52.6396L45.7788 44.6263C46.1282 44.4162 46.3933 44.0909 46.5287 43.7064C46.664 43.3219 46.661 42.9022 46.5202 42.5196L34.7148 25.9916C34.3915 25.5387 33.9346 25.1982 33.4081 25.0179C32.8816 24.8376 32.3119 24.8266 31.7788 24.9863L25.1495 26.973C23.7661 27.3879 22.2961 27.4206 20.8956 27.0675C19.495 26.7145 18.2162 25.9888 17.1948 24.9676L16.4135 24.189C15.704 23.4809 15.2088 22.587 14.9847 21.6101C14.7606 20.6331 14.8168 19.6128 15.1468 18.6663H10.6668V36.0263L11.1282 36.389ZM37.5015 10.7836C37.065 10.5055 36.557 10.3605 36.0394 10.3662C35.5219 10.3718 35.0171 10.528 34.5868 10.8156L20.1868 20.4156L20.9655 21.197C21.3063 21.5374 21.733 21.7791 22.2002 21.8965C22.6673 22.0139 23.1576 22.0025 23.6188 21.8636L30.2455 19.877C31.8445 19.3975 33.5535 19.4302 35.1329 19.9706C36.7124 20.5109 38.0833 21.5318 39.0535 22.8903L49.3735 37.333H53.3335V18.6663H51.4428C50.4282 18.6662 49.4347 18.3766 48.5788 17.8316L37.5015 10.7836ZM16.4828 38.7863L12.1735 42.557L25.8802 53.3276L27.7602 50.0423C28.0395 49.553 28.1567 48.9878 28.0949 48.4277C28.0331 47.8677 27.7955 47.3416 27.4162 46.925L20.2135 38.9996C19.7437 38.4831 19.0901 38.1714 18.3931 38.1316C17.696 38.0917 17.0085 38.3267 16.4828 38.7863Z" fill="#482424" fill-opacity="0.5"/>
</svg>
