<svg width="64" height="64" viewBox="0 0 64 64" fill="none" xmlns="http://www.w3.org/2000/svg">
<path d="M46.5409 17.4545C44.6772 16.1021 42.1421 17.382 39.5115 19.1085C39.4311 18.3046 38.7764 17.9779 38.7764 17.1056C38.7764 17.1056 41.4656 16.5962 42.1203 15.7126C42.7064 14.9227 42.7985 13.6637 42.1203 12.9253C40.0155 10.6335 33.7614 10.667 32.0903 10.667C30.4192 10.667 24.165 10.6335 22.0602 12.9253C21.3821 13.6623 21.4742 14.9227 22.0602 15.7126C22.715 16.5962 25.4041 17.1056 25.4041 17.1056C25.4041 17.7435 24.659 18.1524 24.6624 19.1839C21.9179 17.4336 19.2689 16.0937 17.3885 17.5104C14.0228 20.0478 17.5844 25.6895 19.5686 28.9108C18.3011 31.7107 17.8757 34.5134 18.7147 36.6126C20.3858 40.7929 25.4025 43.5802 25.4025 46.3661C25.4025 47.759 23.7313 47.759 23.7313 49.1534C23.7313 50.5477 27.0753 53.3337 32.0903 53.3337C37.1053 53.3337 40.4492 50.5463 40.4492 49.1534C40.4492 47.7604 38.7781 47.7604 38.7781 46.3661C38.7781 43.5788 43.7931 40.7915 45.4659 36.6126C46.3065 34.512 45.8795 31.7079 44.6119 28.9081C46.5208 25.6588 49.9736 19.9418 46.5426 17.4531L46.5409 17.4545ZM25.4025 21.2859C23.666 22.7333 22.1306 24.5156 20.9333 26.3999C19.2823 24.0662 16.3235 20.5322 18.6343 18.7568C20.1865 17.5634 24.3476 20.1804 25.0592 20.6438C25.1546 20.8434 25.2668 21.0556 25.4058 21.2859H25.4041H25.4025ZM39.1682 20.5601C40.2717 19.8371 43.8685 17.6444 45.3236 18.7205C47.6628 20.4498 44.8246 24.0034 43.2238 26.3636C42.0299 24.4919 40.5028 22.7249 38.7764 21.2859C38.9355 21.0193 39.0644 20.7792 39.1682 20.5601Z" fill="#482424" fill-opacity="0.5"/>
</svg>
