<svg width="64" height="64" viewBox="0 0 64 64" fill="none" xmlns="http://www.w3.org/2000/svg">
<g clip-path="url(#clip0_229_1120)">
<path fill-rule="evenodd" clip-rule="evenodd" d="M33.7248 61.8641L33.6928 61.8699L33.4862 61.9717L33.428 61.9834L33.3873 61.9717L33.1808 61.8699C33.1517 61.8583 33.1255 61.867 33.1109 61.8844L33.0993 61.9135L33.0498 63.1587L33.0644 63.2169L33.0935 63.2547L33.396 63.47L33.4397 63.4816L33.4746 63.47L33.7772 63.2547L33.8121 63.2082L33.8237 63.1587L33.7743 61.9164C33.7684 61.8873 33.7481 61.867 33.7248 61.8641ZM34.4958 61.5353L34.4579 61.5411L33.9197 61.8117L33.8906 61.8408L33.8819 61.8728L33.9343 63.1238L33.9488 63.1587L33.9721 63.1791L34.5568 63.4496C34.5918 63.4613 34.6238 63.4496 34.6412 63.4264L34.6529 63.3856L34.5539 61.5993C34.5452 61.5644 34.5248 61.5411 34.4958 61.5353ZM32.4156 61.5411C32.4024 61.5351 32.3876 61.5336 32.3734 61.5368C32.3593 61.5399 32.3465 61.5476 32.3371 61.5586L32.3196 61.5993L32.2207 63.3856C32.2207 63.4205 32.2411 63.4438 32.2702 63.4554L32.3138 63.4496L32.8986 63.1791L32.9277 63.1558L32.9393 63.1238L32.9888 61.8728L32.98 61.8379L32.9509 61.8088L32.4156 61.5411Z" fill="#482424" fill-opacity="0.5"/>
<path fill-rule="evenodd" clip-rule="evenodd" d="M34.8713 10.9001C35.9892 10.266 36.8656 9.27967 37.3639 8.09504C37.8622 6.91041 37.9543 5.59414 37.6258 4.35168C37.2972 3.10921 36.5666 2.01047 35.5479 1.22695C34.5292 0.443422 33.2798 0.0192061 31.9946 0.0205108C30.7095 0.0218155 29.4609 0.448568 28.4438 1.23416C27.4267 2.01975 26.6983 3.11997 26.3723 4.3631C26.0463 5.60623 26.1411 6.92231 26.6418 8.10593C27.1424 9.28954 28.0209 10.2741 29.1401 10.9059L29.111 10.9583C27.2054 14.9352 24.558 20.6316 20.4704 22.7699C17.1131 24.5242 12.2954 23.6427 8.71699 22.9852C8.65958 22.1715 8.37527 21.3902 7.8963 20.7299C7.41733 20.0696 6.76289 19.5568 6.00722 19.2496C5.25156 18.9424 4.42492 18.8532 3.62112 18.9921C2.81731 19.1309 2.0685 19.4923 1.45967 20.0351C0.850831 20.578 0.406337 21.2806 0.17662 22.0633C-0.0530982 22.846 -0.0588429 23.6774 0.160037 24.4632C0.378917 25.249 0.813659 25.9578 1.41494 26.509C2.01621 27.0602 2.75995 27.4319 3.56176 27.5818L12.1383 49.7214C12.7743 51.3627 13.8918 52.7733 15.344 53.7681C16.7962 54.7629 18.5153 55.2954 20.2755 55.2955H43.7242C45.4845 55.2954 47.2035 54.7629 48.6557 53.7681C50.1079 52.7733 51.2254 51.3627 51.8614 49.7214L60.4351 27.5818C61.2318 27.4335 61.9716 27.0663 62.5714 26.5213C63.1712 25.9763 63.6073 25.275 63.831 24.496C64.0547 23.717 64.057 22.8912 63.8378 22.111C63.6185 21.3307 63.1863 20.627 62.5896 20.0786C61.9929 19.5302 61.2553 19.1587 60.4594 19.0059C59.6634 18.8532 58.8407 18.925 58.0833 19.2135C57.326 19.5019 56.6639 19.9956 56.1713 20.6392C55.6787 21.2827 55.3751 22.0508 55.2944 22.8572C51.6316 23.3314 46.9099 23.9365 43.5293 22.1706C39.5232 20.0759 36.838 14.7723 34.8713 10.9001ZM32.0726 17.7863C34.3069 21.4113 36.9864 25.3126 40.8353 27.3287C44.6959 29.3448 49.4468 29.243 53.6943 28.8794L46.4357 47.618C46.2239 48.1651 45.8516 48.6354 45.3677 48.9672C44.8838 49.299 44.3109 49.4767 43.7242 49.477H20.2755C19.6888 49.4767 19.1159 49.299 18.632 48.9672C18.1481 48.6354 17.7759 48.1651 17.5641 47.618L10.4044 29.1354C14.5908 29.6707 19.3271 29.9325 23.1644 27.9251C27.1734 25.8304 29.8557 21.6062 32.0726 17.7863Z" fill="#A39191"/>
</g>
<defs>
<clipPath id="clip0_229_1120">
<rect width="64" height="64" fill="white"/>
</clipPath>
</defs>
</svg>
