<svg width="20" height="18" viewBox="0 0 20 18" fill="none" xmlns="http://www.w3.org/2000/svg">
<path fill-rule="evenodd" clip-rule="evenodd" d="M14 4C14.5523 4 15 4.44772 15 5V13C15 13.5523 14.5523 14 14 14C13.4477 14 13 13.5523 13 13V5C13 4.44772 13.4477 4 14 4ZM6 6C6.55228 6 7 6.44772 7 7V13C7 13.5523 6.55228 14 6 14C5.44772 14 5 13.5523 5 13V7C5 6.44772 5.44772 6 6 6ZM10 8C10.5523 8 11 8.44772 11 9V13C11 13.5523 10.5523 14 10 14C9.44772 14 9 13.5523 9 13V9C9 8.44772 9.44772 8 10 8Z" fill="#2F72B7"/>
<path fill-rule="evenodd" clip-rule="evenodd" d="M3 2C2.44772 2 2 2.44772 2 3V15C2 15.5523 2.44772 16 3 16H17C17.5523 16 18 15.5523 18 15V3C18 2.44772 17.5523 2 17 2H3ZM0 3C0 1.34315 1.34315 0 3 0H17C18.6569 0 20 1.34315 20 3V15C20 16.6569 18.6569 18 17 18H3C1.34315 18 0 16.6569 0 15V3Z" fill="#2F72B7"/>
</svg>
