<svg width="25" height="24" viewBox="0 0 25 24" fill="none" xmlns="http://www.w3.org/2000/svg">
<path fill-rule="evenodd" clip-rule="evenodd" d="M14.584 2.5C14.584 2.4337 14.5576 2.37011 14.5108 2.32322C14.4639 2.27634 14.4003 2.25 14.334 2.25H7.33398C6.60464 2.25 5.90517 2.53973 5.38944 3.05546C4.87372 3.57118 4.58398 4.27065 4.58398 5V19C4.58398 19.7293 4.87372 20.4288 5.38944 20.9445C5.90517 21.4603 6.60464 21.75 7.33398 21.75H17.334C18.0633 21.75 18.7628 21.4603 19.2785 20.9445C19.7943 20.4288 20.084 19.7293 20.084 19V9.147C20.084 9.0807 20.0576 9.01711 20.0108 8.97022C19.9639 8.92334 19.9003 8.897 19.834 8.897H15.334C15.1351 8.897 14.9443 8.81798 14.8037 8.67733C14.663 8.53668 14.584 8.34591 14.584 8.147V2.5ZM15.334 12.25C15.5329 12.25 15.7237 12.329 15.8643 12.4697C16.005 12.6103 16.084 12.8011 16.084 13C16.084 13.1989 16.005 13.3897 15.8643 13.5303C15.7237 13.671 15.5329 13.75 15.334 13.75H9.33398C9.13507 13.75 8.94431 13.671 8.80365 13.5303C8.663 13.3897 8.58398 13.1989 8.58398 13C8.58398 12.8011 8.663 12.6103 8.80365 12.4697C8.94431 12.329 9.13507 12.25 9.33398 12.25H15.334ZM15.334 16.25C15.5329 16.25 15.7237 16.329 15.8643 16.4697C16.005 16.6103 16.084 16.8011 16.084 17C16.084 17.1989 16.005 17.3897 15.8643 17.5303C15.7237 17.671 15.5329 17.75 15.334 17.75H9.33398C9.13507 17.75 8.94431 17.671 8.80365 17.5303C8.663 17.3897 8.58398 17.1989 8.58398 17C8.58398 16.8011 8.663 16.6103 8.80365 16.4697C8.94431 16.329 9.13507 16.25 9.33398 16.25H15.334Z" fill="#482424"/>
<path d="M16.084 2.82444C16.084 2.64044 16.277 2.52345 16.42 2.63845C16.541 2.73644 16.65 2.85045 16.743 2.98044L19.756 7.17744C19.824 7.27344 19.75 7.39744 19.632 7.39744H16.334C16.2677 7.39744 16.2041 7.37111 16.1572 7.32422C16.1103 7.27734 16.084 7.21375 16.084 7.14744V2.82444Z" fill="#482424"/>
</svg>
