<svg width="20" height="20" viewBox="0 0 20 20" fill="none" xmlns="http://www.w3.org/2000/svg">
<path d="M2.33565 1.44562L3.17815 0.603118C3.60293 0.178337 4.29164 0.178337 4.71642 0.603117L7.66938 3.55608C8.09416 3.98086 8.09416 4.66957 7.66938 5.09435L5.63204 7.13169C5.29645 7.46728 5.21325 7.97995 5.4255 8.40444C6.65245 10.8584 8.64222 12.8481 11.0961 14.0751C11.5206 14.2873 12.0333 14.2041 12.3689 13.8685L14.4062 11.8312C14.831 11.4064 15.5197 11.4064 15.9445 11.8312L18.8975 14.7841C19.3222 15.2089 19.3222 15.8976 18.8975 16.3224L18.0549 17.1649C15.7584 19.4615 12.1226 19.7199 9.52435 17.7712L7.92924 16.5748C6.03277 15.1525 4.34808 13.4678 2.92573 11.5713L1.7294 9.97621C-0.219297 7.37795 0.0390925 3.74218 2.33565 1.44562Z" fill="white"/>
</svg>
