<svg width="13" height="16" viewBox="0 0 13 16" fill="none" xmlns="http://www.w3.org/2000/svg">
<path d="M11.9528 2.54533C11.254 2.03815 10.3033 2.51812 9.31681 3.16557C9.28667 2.86409 9.04115 2.74161 9.04115 2.41448C9.04115 2.41448 10.0496 2.22344 10.2951 1.89212C10.5149 1.59587 10.5494 1.12376 10.2951 0.846881C9.50582 -0.0125516 7.16052 1.01334e-05 6.53385 1.01334e-05C5.90718 1.01334e-05 3.56189 -0.0125516 2.77259 0.846881C2.51828 1.12324 2.55281 1.59587 2.77259 1.89212C3.01811 2.22344 4.02655 2.41448 4.02655 2.41448C4.02655 2.65368 3.74713 2.80703 3.74838 3.19383C2.71921 2.53748 1.72584 2.03501 1.02068 2.56627C-0.241448 3.51782 1.09415 5.63343 1.83824 6.84145C1.3629 7.8914 1.20341 8.9424 1.518 9.7296C2.14466 11.2972 4.02592 12.3424 4.02592 13.3872C4.02592 13.9095 3.39926 13.9095 3.39926 14.4324C3.39926 14.9553 4.65322 16 6.53385 16C8.41448 16 9.66845 14.9548 9.66845 14.4324C9.66845 13.91 9.04178 13.91 9.04178 13.3872C9.04178 12.3419 10.9224 11.2967 11.5497 9.7296C11.8649 8.94187 11.7048 7.89035 11.2295 6.8404C11.9453 5.62191 13.2401 3.47804 11.9535 2.54481L11.9528 2.54533ZM4.02592 3.98208C3.37477 4.52485 2.79896 5.19324 2.34999 5.89984C1.73086 5.0247 0.62132 3.69944 1.48786 3.03367C2.06994 2.58616 3.63033 3.56754 3.8972 3.74131C3.93299 3.81616 3.97506 3.89572 4.02718 3.98208H4.02655H4.02592ZM9.18809 3.70991C9.60189 3.43879 10.9507 2.61652 11.4963 3.02006C12.3735 3.66856 11.3092 5.00115 10.7089 5.88623C10.2612 5.18434 9.68854 4.52171 9.04115 3.98208C9.10081 3.88211 9.14916 3.79208 9.18809 3.70991Z" fill="#482424"/>
</svg>
