<svg width="24" height="24" viewBox="0 0 24 24" fill="none" xmlns="http://www.w3.org/2000/svg">
<path d="M21.1089 8.34977C21.1094 8.34672 21.1119 8.34484 21.1122 8.3418C21.1117 8.34484 21.1094 8.34695 21.1089 8.34977Z" fill="#482424"/>
<path d="M1.71459 4.28613V7.7148H1.71436V9.42902H1.71459V19.7148H11.1433V18.0003H3.42881V9.42902H20.5717V12.7621H22.2859V4.28613H1.71459ZM3.42881 7.71457V6.00035H20.5717V7.71457H3.42881Z" fill="#482424"/>
<path d="M4.28564 13.7139H9.42853V15.4281H4.28564V13.7139ZM19.2859 13.7139H17.4978L18.6062 12.6055L17.3942 11.3936L14.2166 14.571L17.394 17.7484L18.606 16.5364L17.4976 15.4281H19.2856C19.9946 15.4281 20.5714 16.0049 20.5714 16.7139C20.5714 17.4229 19.9949 17.9996 19.2859 17.9996H12.8572V19.7139H19.2859C20.9399 19.7139 22.2859 18.3679 22.2859 16.7139C22.2859 15.0599 20.9399 13.7139 19.2859 13.7139Z" fill="#482424"/>
</svg>
