<svg width="76" height="76" viewBox="0 0 76 76" fill="none" xmlns="http://www.w3.org/2000/svg">
<path d="M37.9998 68.8619C38.8299 68.8617 39.6259 68.5318 40.2128 67.9447L68.3835 39.774C68.7029 39.4547 68.9494 39.07 69.1061 38.6464C69.2628 38.2228 69.326 37.7703 69.2913 37.32L67.2786 11.1619C67.2218 10.4168 66.9003 9.71652 66.3721 9.18779C65.844 8.65907 65.1441 8.33675 64.399 8.27913L38.2409 6.26023C37.7906 6.22553 37.3381 6.28869 36.9145 6.44538C36.4909 6.60206 36.1062 6.84856 35.7869 7.16795L7.61615 35.3387C7.02935 35.9257 6.69971 36.7217 6.69971 37.5517C6.69971 38.3816 7.02935 39.1776 7.61615 39.7646L35.7869 67.9354C36.0767 68.2277 36.4213 68.4601 36.8011 68.619C37.1808 68.778 37.5882 68.8605 37.9998 68.8619ZM39.1955 12.6206L61.2438 14.3171L62.9403 36.3654L37.9998 61.3058L14.2551 37.561L39.1955 12.6206ZM45.6466 29.9143C44.771 29.0388 44.1745 27.9234 43.9328 26.709C43.6911 25.4946 43.815 24.2358 44.2888 23.0918C44.7625 21.9478 45.5649 20.9699 46.5944 20.282C47.6239 19.594 48.8344 19.2268 50.0726 19.2268C51.3108 19.2268 52.5212 19.594 53.5507 20.282C54.5802 20.9699 55.3826 21.9478 55.8564 23.0918C56.3302 24.2358 56.454 25.4946 56.2123 26.709C55.9706 27.9234 55.3742 29.0388 54.4985 29.9143C53.3246 31.0879 51.7325 31.7471 50.0726 31.7471C48.4126 31.7471 46.8206 31.0879 45.6466 29.9143Z" fill="white"/>
</svg>
