<svg width="76" height="76" viewBox="0 0 76 76" fill="none" xmlns="http://www.w3.org/2000/svg">
<g clip-path="url(#clip0_4001_1460)">
<path d="M38.6178 57.0738H38.6455C39.2376 57.0738 39.9032 57.2036 40.4531 57.4784L38.6178 57.0738ZM38.6178 57.0738L38.5903 57.0769C38.0249 57.1397 37.4442 57.2671 36.8578 57.5277L36.8382 57.5364L36.8195 57.5468L19.395 67.1525L22.3543 47.4986C22.3544 47.498 22.3545 47.4974 22.3546 47.4968C22.5551 46.2233 22.1501 44.9997 21.2037 44.1205C21.2034 44.1203 21.2032 44.12 21.2029 44.1198L6.68699 30.5529L26.3434 27.3141L26.3443 27.314C27.5633 27.1108 28.6403 26.3012 29.1794 25.1556L29.18 25.1545L37.6125 7.11671L46.7669 24.7555C46.7674 24.7566 46.768 24.7578 46.7686 24.7589C47.3135 25.8457 48.4554 26.6519 49.6792 26.7891C49.6803 26.7893 49.6814 26.7894 49.6825 26.7895L69.4467 29.2461L55.4878 43.4283C55.4873 43.4288 55.4869 43.4293 55.4864 43.4298C54.6117 44.3054 54.2008 45.5886 54.4714 46.8181L58.2677 66.3578L40.4537 57.4787L38.6178 57.0738ZM15.7403 71.0581L15.7459 71.064C16.9413 72.3258 18.8891 72.7478 20.4607 71.8611C20.4615 71.8606 20.4623 71.8602 20.4631 71.8597L38.7751 61.7186L57.4958 71.05C58.0458 71.325 58.7116 71.4549 59.304 71.4549C60.4063 71.4549 61.4797 70.9077 62.2093 70.0454L62.2169 70.0365L62.2239 70.0273C62.8982 69.1507 63.1667 68.0084 62.9647 66.9306L62.964 66.9273L58.9645 46.35L73.6255 31.3412C73.6263 31.3405 73.627 31.3398 73.6277 31.339C74.6445 30.3206 74.9788 28.771 74.5081 27.422C74.0357 26.0091 72.8797 25.0595 71.4028 24.8581L71.3961 24.8573L50.588 22.307L40.9084 3.70128L40.9073 3.69917C40.2329 2.41793 38.8811 1.60413 37.3903 1.67189L37.3892 1.67194C35.9671 1.73966 34.6904 2.61687 34.0854 3.89406L34.0836 3.89788L25.2737 22.9087L4.58904 26.3851C3.10678 26.5903 1.95379 27.6072 1.54575 29.0205C1.07644 30.4416 1.48814 31.9304 2.56188 32.9371L2.56294 32.938L17.9226 47.2544L14.7929 67.9457L14.7916 67.9538L14.7907 67.962C14.658 69.0897 14.987 70.2362 15.7403 71.058L15.7403 71.0581Z" fill="white" stroke="white"/>
</g>
<defs>
<clipPath id="clip0_4001_1460">
<rect width="75.1219" height="75.1219" fill="white" transform="translate(0.438965)"/>
</clipPath>
</defs>
</svg>
