<svg width="76" height="76" viewBox="0 0 76 76" fill="none" xmlns="http://www.w3.org/2000/svg">
<g clip-path="url(#clip0_4001_1466)">
<path d="M75.5612 31.8244C75.5566 27.5236 72.0719 24.0367 67.7711 24.0343H56.6362C56.1181 24.0343 50.2423 24.0343 49.7081 24.0343C48.6879 24.0436 47.7525 24.1949 47.0716 24.1856C46.7988 24.1856 46.5833 24.1627 46.4571 24.1351L46.3634 24.1079L46.3405 24.039C46.3198 23.9497 46.2992 23.8006 46.2992 23.5851C46.2992 23.4522 46.3199 23.2641 46.3359 23.0806L50.7788 12.0948C51.2052 11.0402 51.407 9.94443 51.407 8.87145C51.4115 5.46925 49.3757 2.24605 46.0287 0.888863C44.9787 0.464689 43.8805 0.260744 42.8031 0.260744C39.3987 0.258397 36.1799 2.29652 34.8228 5.64135L34.8159 5.6528L27.2803 24.6259H27.2849C26.7805 25.809 26.3748 26.9185 25.9782 27.8767C25.3798 29.3485 24.7952 30.4077 24.1051 31.0222C23.759 31.3339 23.3829 31.5678 22.8603 31.7512C22.3422 31.9301 21.6613 32.0516 20.7488 32.0516C20.1941 32.0492 19.6668 32.1135 19.1509 32.2097H6.96836C3.35987 32.2097 0.439209 35.1327 0.439209 38.7389V68.3333C0.439209 71.9394 3.35987 74.8601 6.96836 74.8601H16.0032C18.0047 74.8601 19.6301 73.2369 19.6301 71.2332V68.2278C20.2651 68.5991 20.9346 68.9361 21.6544 69.2067C24.1716 70.1604 27.1611 70.5593 30.7605 70.5593H58.8211C63.122 70.5593 66.6112 67.0792 66.6112 62.7761C66.6112 61.7651 66.4049 60.8023 66.0496 59.922C69.1536 58.8949 71.3981 55.9788 71.3981 52.5308C71.4004 51.1231 71.0037 49.8095 70.3503 48.6793C71.2926 47.909 71.9321 46.8958 72.2967 45.8366C72.6957 44.6995 72.8331 43.5028 72.8331 42.2855C72.8331 41.5312 72.6726 40.7975 72.3975 40.0823C72.1958 39.5733 71.9321 39.0712 71.6089 38.5967C73.9655 37.2579 75.5588 34.7291 75.5612 31.8244ZM67.7758 35.77H66.4781C65.9692 35.77 65.4785 35.974 65.121 36.3316C64.7634 36.6892 64.557 37.1845 64.557 37.6888C64.557 38.1931 64.7633 38.6884 65.121 39.046C65.4787 39.4035 65.9692 39.61 66.4781 39.61C66.8473 39.61 67.1498 39.6926 67.4456 39.8461C67.8813 40.0685 68.2962 40.488 68.5827 40.9786C68.8716 41.46 69.0046 42.0126 68.9955 42.2853C69 43.5027 68.7845 44.4976 68.4498 45.0845C68.2802 45.3825 68.099 45.5911 67.8767 45.7585C67.6521 45.9236 67.3723 46.0612 66.9459 46.1529C66.2214 46.2996 65.6528 46.8475 65.4741 47.5651C65.2931 48.2849 65.5384 49.0369 66.1115 49.5092C67.0056 50.2566 67.5604 51.3158 67.5604 52.5308C67.5558 54.7088 65.7928 56.474 63.6103 56.4785H62.6956C61.8978 56.4785 61.1825 56.9692 60.9028 57.7166C60.6185 58.464 60.8249 59.3031 61.4256 59.8349C62.2602 60.58 62.7714 61.6049 62.7714 62.7763C62.769 64.9542 61.0038 66.7171 58.8213 66.7218H30.7606C27.8169 66.7242 25.474 66.4191 23.672 65.846C22.3148 65.4149 21.2671 64.8442 20.4189 64.1311C20.1345 63.8882 19.8755 63.6221 19.6302 63.3448V36.0198C19.9397 35.9419 20.2974 35.8914 20.749 35.8914C22.4111 35.8914 23.853 35.5911 25.0704 34.9744C25.9783 34.5183 26.7394 33.8878 27.3446 33.1885C28.2525 32.1317 28.844 30.9441 29.3575 29.7429C29.871 28.537 30.3112 27.3036 30.8293 26.0886L30.8522 26.0427L38.3831 7.07425C39.1327 5.22187 40.9186 4.10077 42.8031 4.09857C43.3969 4.09857 44.0022 4.21096 44.5891 4.44938C46.446 5.19678 47.5671 6.98269 47.5694 8.87174C47.5694 9.46553 47.4594 10.0684 47.221 10.6577L42.6726 21.9072C42.6106 22.0562 42.5716 22.2075 42.5487 22.3657C42.4914 22.792 42.4616 23.1955 42.4616 23.5854C42.4616 24.3006 42.5625 24.9769 42.826 25.6074C43.0187 26.0797 43.3098 26.5175 43.6673 26.8637C44.2038 27.3911 44.8526 27.6845 45.4326 27.8358C46.0195 27.9917 46.5651 28.0237 47.0717 28.0261C48.1607 28.0192 49.1419 27.8656 49.7082 27.8748C50.2424 27.8748 56.1182 27.8748 56.6363 27.8748H67.7712C69.9492 27.8725 71.7236 29.6424 71.7236 31.8249C71.7189 34.0024 69.9536 35.7676 67.7758 35.77Z" fill="white"/>
</g>
<defs>
<clipPath id="clip0_4001_1466">
<rect width="75.1219" height="75.1219" fill="white" transform="translate(0.438965)"/>
</clipPath>
</defs>
</svg>
