<svg width="43" height="45" viewBox="0 0 43 45" fill="none" xmlns="http://www.w3.org/2000/svg">
<path d="M4.01221 19.5313C4.01221 13.5358 4.01221 10.538 4.74576 9.52952C5.47929 8.52101 8.40029 7.55617 14.2423 5.62648L15.3553 5.25885C18.4007 4.25295 19.9233 3.75 21.4999 3.75C23.0765 3.75 24.5991 4.25295 27.6445 5.25885L28.7575 5.62648C34.5995 7.55617 37.5205 8.52101 38.254 9.52952C38.9876 10.538 38.9876 13.5358 38.9876 19.5313C38.9876 20.4367 38.9876 21.4189 38.9876 22.4839C38.9876 33.0551 30.7509 38.1853 25.5831 40.3637C24.1813 40.9545 23.4805 41.25 21.4999 41.25C19.5193 41.25 18.8184 40.9545 17.4166 40.3637C12.2488 38.1853 4.01221 33.0551 4.01221 22.4839C4.01221 21.4189 4.01221 20.4367 4.01221 19.5313Z" stroke="url(#paint0_linear_184_4709)" stroke-width="3"/>
<path d="M33 13.7781L20.0124 30.8964L19.4221 30.1183L32.4097 13L33 13.7781Z" fill="white"/>
<path d="M19.8003 31L13 22.0368L13.5903 21.2587L20.3907 30.2219L19.8003 31Z" fill="white"/>
<defs>
<linearGradient id="paint0_linear_184_4709" x1="21.4999" y1="3.75" x2="21.4999" y2="41.25" gradientUnits="userSpaceOnUse">
<stop stop-color="white"/>
<stop offset="0.475" stop-color="white"/>
<stop offset="1" stop-color="white"/>
</linearGradient>
</defs>
</svg>
