<svg width="51" height="55" viewBox="0 0 51 55" fill="none" xmlns="http://www.w3.org/2000/svg">
<path d="M4.75879 23.8723C4.75879 16.5444 4.75879 12.8805 5.62881 11.6478C6.49881 10.4152 9.96326 9.23598 16.8922 6.87746L18.2123 6.42813C21.8242 5.1987 23.6301 4.58398 25.5 4.58398C27.3699 4.58398 29.1758 5.1987 32.7878 6.42813L34.1078 6.87746C41.0368 9.23598 44.5012 10.4152 45.3712 11.6478C46.2412 12.8805 46.2412 16.5444 46.2412 23.8723C46.2412 24.9789 46.2412 26.1793 46.2412 27.4809C46.2412 40.4014 36.4721 46.6716 30.3428 49.334C28.6803 50.0561 27.849 50.4173 25.5 50.4173C23.1509 50.4173 22.3197 50.0561 20.6571 49.334C14.5278 46.6716 4.75879 40.4014 4.75879 27.4809C4.75879 26.1793 4.75879 24.9789 4.75879 23.8723Z" stroke="url(#paint0_linear_216_389)" stroke-width="3"/>
<path d="M37.9839 14.0726L37.9839 14.0726L37.9895 14.0723C38.3554 14.0552 38.702 14.2474 38.8825 14.5707C39.0637 14.8982 39.046 15.2975 38.8368 15.6065L38.8367 15.6065L38.8313 15.6147L24.0809 38.3385L24.0801 38.3398C23.9284 38.575 23.6846 38.7333 23.4088 38.7757C23.1364 38.8151 22.8583 38.7356 22.6478 38.5562C22.6472 38.5558 22.6466 38.5553 22.6461 38.5548L12.4186 29.6259L12.4038 29.613L12.3881 29.6013C12.0933 29.3821 11.9452 29.0143 12.0066 28.6441C12.0676 28.2796 12.3282 27.9819 12.6748 27.8736L12.6764 27.8731C13.0233 27.7634 13.4015 27.861 13.6553 28.1265L13.671 28.143L13.6882 28.158L22.6348 35.9563L23.0694 36.3351L23.3829 35.8513L37.1928 14.539L37.1929 14.5391L37.1982 14.5304C37.369 14.2549 37.664 14.084 37.9839 14.0726ZM24.5003 38.6108L39.2507 15.8869L24.5003 38.6108Z" fill="#482424" stroke="black"/>
<defs>
<linearGradient id="paint0_linear_216_389" x1="25.5" y1="4.58398" x2="25.5" y2="50.4173" gradientUnits="userSpaceOnUse">
<stop stop-color="#482424"/>
<stop offset="0.475" stop-color="#482424"/>
<stop offset="1" stop-color="#482424"/>
</linearGradient>
</defs>
</svg>
